<svg xmlns="http://www.w3.org/2000/svg" viewBox="0 0 920 620" font-family="ui-sans-serif, system-ui, -apple-system, Segoe UI, Roboto, sans-serif">
  <defs>
    <marker id="arrow" markerWidth="10" markerHeight="10" refX="7" refY="3" orient="auto" markerUnits="strokeWidth">
      <path d="M0,0 L7,3 L0,6 Z" fill="#545d6d"/>
    </marker>
    <style>
      .box { fill:#ffffff; stroke:#e4e7ee; stroke-width:1.5; rx:10; }
      .title { fill:#0f1729; font-size:15px; font-weight:600; }
      .sub { fill:#545d6d; font-size:12px; }
      .tag { fill:#8a93a3; font-size:11px; font-weight:600; letter-spacing:0.04em; }
      .flow { stroke:#545d6d; stroke-width:1.6; fill:none; marker-end:url(#arrow); }
      .brandbox { fill:#edeffd; stroke:#3a49d6; stroke-width:1.5; }
      .accentbox { fill:#e7f6f2; stroke:#0d8f7f; stroke-width:1.5; }
      .lbl { fill:#3a49d6; font-size:11px; font-weight:600; }
    </style>
  </defs>

  <rect x="0" y="0" width="920" height="620" fill="#f5f6f8"/>
  <text x="32" y="40" fill="#0f1729" font-size="22" font-weight="700">Norn architecture</text>
  <text x="32" y="60" class="sub">Variant interpretation copilot. No database. Deploys on Vercel with only ANTHROPIC_API_KEY set.</text>

  <!-- Client -->
  <rect x="32" y="86" width="856" height="86" rx="12" class="box"/>
  <text x="52" y="112" class="tag">CLIENT (BROWSER)</text>
  <text x="52" y="134" class="title">Single-page app</text>
  <text x="52" y="154" class="sub">Input and example chips, live pipeline view, ACMG scorecard, points meter, protein lollipop, reviewer checklist, eval page.</text>

  <path class="flow" d="M460,172 L460,206"/>
  <text x="470" y="192" class="lbl">POST /api/interpret, reads streamed NDJSON</text>

  <!-- Server pipeline -->
  <rect x="32" y="206" width="856" height="290" rx="12" fill="#ffffff" stroke="#e4e7ee" stroke-width="1.5"/>
  <text x="52" y="232" class="tag">SERVER (VERCEL SERVERLESS, NODE RUNTIME, maxDuration 60)</text>

  <!-- Stage: normalize -->
  <rect x="52" y="248" width="180" height="66" rx="10" class="box"/>
  <text x="66" y="272" class="title" font-size="13">1. Normalize</text>
  <text x="66" y="291" class="sub" font-size="11">variant_recoder:</text>
  <text x="66" y="305" class="sub" font-size="11">rsID / HGVS / locus</text>

  <!-- Stage: annotate -->
  <rect x="252" y="248" width="180" height="66" rx="10" class="box"/>
  <text x="266" y="272" class="title" font-size="13">2. Annotate</text>
  <text x="266" y="291" class="sub" font-size="11">VEP: consequence,</text>
  <text x="266" y="305" class="sub" font-size="11">protein pos, SIFT, PolyPhen</text>

  <!-- Stage: evidence -->
  <rect x="452" y="248" width="200" height="66" rx="10" class="box"/>
  <text x="466" y="272" class="title" font-size="13">3. Evidence (parallel)</text>
  <text x="466" y="291" class="sub" font-size="11">gnomAD frequency,</text>
  <text x="466" y="305" class="sub" font-size="11">ClinVar residue neighbors</text>

  <!-- Stage: signals -->
  <rect x="672" y="248" width="196" height="66" rx="10" class="box"/>
  <text x="686" y="272" class="title" font-size="13">4. Compute signals</text>
  <text x="686" y="291" class="sub" font-size="11">Objective booleans and</text>
  <text x="686" y="305" class="sub" font-size="11">thresholds, in code</text>

  <path class="flow" d="M232,281 L250,281"/>
  <path class="flow" d="M432,281 L450,281"/>
  <path class="flow" d="M652,281 L670,281"/>

  <!-- Adjudicator -->
  <rect x="52" y="346" width="250" height="70" rx="10" class="brandbox"/>
  <text x="66" y="370" class="title" font-size="13">5. Claude adjudicator</text>
  <text x="66" y="389" class="sub" font-size="11">Per-criterion verdict (met /</text>
  <text x="66" y="403" class="sub" font-size="11">not_met / unknown) with reasoning</text>

  <!-- Engine -->
  <rect x="330" y="346" width="250" height="70" rx="10" class="accentbox"/>
  <text x="344" y="370" class="title" font-size="13">6. ACMG points engine</text>
  <text x="344" y="389" class="sub" font-size="11">Deterministic combine, ClinGen</text>
  <text x="344" y="403" class="sub" font-size="11">Bayesian points, BA1 override</text>

  <!-- Reviewer -->
  <rect x="608" y="346" width="260" height="70" rx="10" class="brandbox"/>
  <text x="622" y="370" class="title" font-size="13">7. Claude reviewer</text>
  <text x="622" y="389" class="sub" font-size="11">Critiques the draft, flags conflicts,</text>
  <text x="622" y="403" class="sub" font-size="11">builds the curator checklist</text>

  <path class="flow" d="M456,314 L177,344"/>
  <path class="flow" d="M302,381 L328,381"/>
  <path class="flow" d="M580,381 L606,381"/>

  <!-- Report out -->
  <rect x="330" y="440" width="250" height="42" rx="10" class="box"/>
  <text x="344" y="466" class="title" font-size="13">Report (streamed to client)</text>
  <path class="flow" d="M455,416 L455,438"/>

  <!-- External sources -->
  <path class="flow" d="M455,496 L455,520"/>
  <rect x="32" y="520" width="856" height="72" rx="12" class="box"/>
  <text x="52" y="546" class="tag">EXTERNAL SOURCES (PUBLIC, NO AUTH EXCEPT ANTHROPIC)</text>
  <text x="52" y="570" class="sub">Ensembl REST (recoder, VEP)   .   gnomAD GraphQL v4   .   ClinVar NCBI E-utilities   .   Anthropic API (Claude)</text>
  <text x="52" y="586" class="sub" font-size="11">Every fetch has a timeout, one retry, and graceful degradation. Example chips fall back to bundled fixtures if a source is down.</text>
</svg>
